<?xml version="1.0" encoding="utf-8" standalone="no"?>
<!DOCTYPE svg PUBLIC "-//W3C//DTD SVG 1.1//EN"
  "http://www.w3.org/Graphics/SVG/1.1/DTD/svg11.dtd">
<svg xmlns:xlink="http://www.w3.org/1999/xlink" width="784.8pt" height="352.8pt" viewBox="0 0 784.8 352.8" xmlns="http://www.w3.org/2000/svg" version="1.1">
 <metadata>
  <rdf:RDF xmlns:dc="http://purl.org/dc/elements/1.1/" xmlns:cc="http://creativecommons.org/ns#" xmlns:rdf="http://www.w3.org/1999/02/22-rdf-syntax-ns#">
   <cc:Work>
    <dc:type rdf:resource="http://purl.org/dc/dcmitype/StillImage"/>
    <dc:date>2026-05-03T16:56:19.998781</dc:date>
    <dc:format>image/svg+xml</dc:format>
    <dc:creator>
     <cc:Agent>
      <dc:title>Matplotlib v3.9.2, https://matplotlib.org/</dc:title>
     </cc:Agent>
    </dc:creator>
   </cc:Work>
  </rdf:RDF>
 </metadata>
 <defs>
  <style type="text/css">*{stroke-linejoin: round; stroke-linecap: butt}</style>
 </defs>
 <g id="figure_1">
  <g id="patch_1">
   <path d="M 0 352.8 
L 784.8 352.8 
L 784.8 0 
L 0 0 
L 0 352.8 
z
" style="fill: none; opacity: 0"/>
  </g>
  <g id="axes_1">
   <g id="patch_2">
    <path d="M 287.345455 63.816923 
L 497.454545 63.816923 
Q 502.357091 63.816923 502.357091 59.261538 
L 502.357091 16.961538 
Q 502.357091 12.406154 497.454545 12.406154 
L 287.345455 12.406154 
Q 282.442909 12.406154 282.442909 16.961538 
L 282.442909 59.261538 
Q 282.442909 63.816923 287.345455 63.816923 
z
" clip-path="url(#p60bcbf990f)" style="fill: #1c355e; opacity: 0.95; stroke: #ffffff; stroke-linejoin: miter"/>
   </g>
   <g id="patch_3">
    <path d="M 14.203636 154.924615 
L 196.298182 154.924615 
Q 201.200727 154.924615 201.200727 150.369231 
L 201.200727 108.069231 
Q 201.200727 103.513846 196.298182 103.513846 
L 14.203636 103.513846 
Q 9.301091 103.513846 9.301091 108.069231 
L 9.301091 150.369231 
Q 9.301091 154.924615 14.203636 154.924615 
z
" clip-path="url(#p60bcbf990f)" style="fill: #2a4a7f; opacity: 0.95; stroke: #ffffff; stroke-linejoin: miter"/>
   </g>
   <g id="patch_4">
    <path d="M 14.203636 239.524615 
L 196.298182 239.524615 
Q 201.200727 239.524615 201.200727 234.969231 
L 201.200727 195.923077 
Q 201.200727 191.367692 196.298182 191.367692 
L 14.203636 191.367692 
Q 9.301091 191.367692 9.301091 195.923077 
L 9.301091 234.969231 
Q 9.301091 239.524615 14.203636 239.524615 
z
" clip-path="url(#p60bcbf990f)" style="fill: #00c9a7; opacity: 0.95; stroke: #ffffff; stroke-linejoin: miter"/>
   </g>
   <g id="patch_5">
    <path d="M 280.341818 154.924615 
L 504.458182 154.924615 
Q 509.360727 154.924615 509.360727 150.369231 
L 509.360727 108.069231 
Q 509.360727 103.513846 504.458182 103.513846 
L 280.341818 103.513846 
Q 275.439273 103.513846 275.439273 108.069231 
L 275.439273 150.369231 
Q 275.439273 154.924615 280.341818 154.924615 
z
" clip-path="url(#p60bcbf990f)" style="fill: #2a4a7f; opacity: 0.95; stroke: #ffffff; stroke-linejoin: miter"/>
   </g>
   <g id="patch_6">
    <path d="M 210.305455 239.524615 
L 350.378182 239.524615 
Q 355.280727 239.524615 355.280727 234.969231 
L 355.280727 195.923077 
Q 355.280727 191.367692 350.378182 191.367692 
L 210.305455 191.367692 
Q 205.402909 191.367692 205.402909 195.923077 
L 205.402909 234.969231 
Q 205.402909 239.524615 210.305455 239.524615 
z
" clip-path="url(#p60bcbf990f)" style="fill: #00c9a7; opacity: 0.95; stroke: #ffffff; stroke-linejoin: miter"/>
   </g>
   <g id="patch_7">
    <path d="M 364.385455 239.524615 
L 518.465455 239.524615 
Q 523.368 239.524615 523.368 234.969231 
L 523.368 195.923077 
Q 523.368 191.367692 518.465455 191.367692 
L 364.385455 191.367692 
Q 359.482909 191.367692 359.482909 195.923077 
L 359.482909 234.969231 
Q 359.482909 239.524615 364.385455 239.524615 
z
" clip-path="url(#p60bcbf990f)" style="fill: #00c9a7; opacity: 0.95; stroke: #ffffff; stroke-linejoin: miter"/>
   </g>
   <g id="patch_8">
    <path d="M 560.487273 154.924615 
L 763.592727 154.924615 
Q 768.495273 154.924615 768.495273 150.369231 
L 768.495273 108.069231 
Q 768.495273 103.513846 763.592727 103.513846 
L 560.487273 103.513846 
Q 555.584727 103.513846 555.584727 108.069231 
L 555.584727 150.369231 
Q 555.584727 154.924615 560.487273 154.924615 
z
" clip-path="url(#p60bcbf990f)" style="fill: #2a4a7f; opacity: 0.95; stroke: #ffffff; stroke-linejoin: miter"/>
   </g>
   <g id="patch_9">
    <path d="M 483.447273 239.524615 
L 665.541818 239.524615 
Q 670.444364 239.524615 670.444364 234.969231 
L 670.444364 195.923077 
Q 670.444364 191.367692 665.541818 191.367692 
L 483.447273 191.367692 
Q 478.544727 191.367692 478.544727 195.923077 
L 478.544727 234.969231 
Q 478.544727 239.524615 483.447273 239.524615 
z
" clip-path="url(#p60bcbf990f)" style="fill: #ff8c00; opacity: 0.95; stroke: #ffffff; stroke-linejoin: miter"/>
   </g>
   <g id="patch_10">
    <path d="M 679.549091 239.524615 
L 777.6 239.524615 
Q 782.502545 239.524615 782.502545 234.969231 
L 782.502545 195.923077 
Q 782.502545 191.367692 777.6 191.367692 
L 679.549091 191.367692 
Q 674.646545 191.367692 674.646545 195.923077 
L 674.646545 234.969231 
Q 674.646545 239.524615 679.549091 239.524615 
z
" clip-path="url(#p60bcbf990f)" style="fill: #ff8c00; opacity: 0.95; stroke: #ffffff; stroke-linejoin: miter"/>
   </g>
   <g id="text_1">
    <text style="fill: #ffffff; font: 700 11px 'DejaVu Sans', 'Bitstream Vera Sans', 'Computer Modern Sans Serif', 'Lucida Grande', 'Verdana', 'Geneva', 'Lucid', 'Arial', 'Helvetica', 'Avant Garde', sans-serif; text-anchor: middle" x="392.4" y="40.947476" transform="rotate(-0 392.4 40.947476)">ماذا تحتاج؟</text>
   </g>
   <g id="patch_11">
    <path d="M 390.423922 59.597419 
Q 248.823007 83.665801 109.206096 107.396954 
" style="fill: none; stroke: #888888; stroke-width: 1.8; stroke-linecap: round"/>
    <path d="M 115.623967 109.349115 
L 109.206096 107.396954 
L 114.618548 103.433954 
" style="fill: none; stroke: #888888; stroke-width: 1.8; stroke-linecap: round"/>
   </g>
   <g id="patch_12">
    <path d="M 392.4 61.260437 
Q 392.4 83.663462 392.4 104.054025 
" style="fill: none; stroke: #888888; stroke-width: 1.8; stroke-linecap: round"/>
    <path d="M 395.4 98.054025 
L 392.4 104.054025 
L 389.4 98.054025 
" style="fill: none; stroke: #888888; stroke-width: 1.8; stroke-linecap: round"/>
   </g>
   <g id="patch_13">
    <path d="M 394.365177 59.631677 
Q 521.966876 83.66531 647.590887 107.326447 
" style="fill: none; stroke: #888888; stroke-width: 1.8; stroke-linecap: round"/>
    <path d="M 642.249846 103.267719 
L 647.590887 107.326447 
L 641.13928 109.164044 
" style="fill: none; stroke: #888888; stroke-width: 1.8; stroke-linecap: round"/>
   </g>
   <g id="text_2">
    <text style="fill: #ffffff; font: 700 9px 'DejaVu Sans', 'Bitstream Vera Sans', 'Computer Modern Sans Serif', 'Lucida Grande', 'Verdana', 'Geneva', 'Lucid', 'Arial', 'Helvetica', 'Avant Garde', sans-serif" transform="translate(52.927159 126.337403)">تجزئة على مستوى</text>
    <text style="fill: #ffffff; font: 700 9px 'DejaVu Sans', 'Bitstream Vera Sans', 'Computer Modern Sans Serif', 'Lucida Grande', 'Verdana', 'Geneva', 'Lucid', 'Arial', 'Helvetica', 'Avant Garde', sans-serif" transform="translate(81.043722 136.741684)">البكسل</text>
   </g>
   <g id="patch_14">
    <path d="M 105.250909 152.368328 
Q 105.250909 173.144826 105.250909 191.908862 
" style="fill: none; stroke: #888888; stroke-width: 1.8; stroke-linecap: round"/>
    <path d="M 108.250909 185.908862 
L 105.250909 191.908862 
L 102.250909 185.908862 
" style="fill: none; stroke: #888888; stroke-width: 1.8; stroke-linecap: round"/>
   </g>
   <g id="text_3">
    <text style="fill: #ffffff; font: 700 9px 'DejaVu Sans', 'Bitstream Vera Sans', 'Computer Modern Sans Serif', 'Lucida Grande', 'Verdana', 'Geneva', 'Lucid', 'Arial', 'Helvetica', 'Avant Garde', sans-serif" transform="translate(84.511534 212.890576)">SAM 3.1</text>
    <text style="fill: #ffffff; font: 700 9px 'DejaVu Sans', 'Bitstream Vera Sans', 'Computer Modern Sans Serif', 'Lucida Grande', 'Verdana', 'Geneva', 'Lucid', 'Arial', 'Helvetica', 'Avant Garde', sans-serif" transform="translate(58.007237 222.968607)">(facebook/sam3.1)</text>
   </g>
   <g id="text_4">
    <text style="fill: #ffffff; font: 700 9px 'DejaVu Sans', 'Bitstream Vera Sans', 'Computer Modern Sans Serif', 'Lucida Grande', 'Verdana', 'Geneva', 'Lucid', 'Arial', 'Helvetica', 'Avant Garde', sans-serif" transform="translate(349.608516 126.337403)">البحث / ترتيب</text>
    <text style="fill: #ffffff; font: 700 9px 'DejaVu Sans', 'Bitstream Vera Sans', 'Computer Modern Sans Serif', 'Lucida Grande', 'Verdana', 'Geneva', 'Lucid', 'Arial', 'Helvetica', 'Avant Garde', sans-serif" transform="translate(375.512344 136.741684)">الصور</text>
   </g>
   <g id="patch_15">
    <path d="M 334.907686 151.72884 
Q 311.85957 173.144864 290.285719 193.19102 
" style="fill: none; stroke: #888888; stroke-width: 1.8; stroke-linecap: round"/>
    <path d="M 296.723209 191.304564 
L 290.285719 193.19102 
L 292.639049 186.909154 
" style="fill: none; stroke: #888888; stroke-width: 1.8; stroke-linecap: round"/>
   </g>
   <g id="patch_16">
    <path d="M 394.019676 151.539773 
Q 423.914683 173.144939 452.1786 193.571314 
" style="fill: none; stroke: #888888; stroke-width: 1.8; stroke-linecap: round"/>
    <path d="M 449.072869 187.625355 
L 452.1786 193.571314 
L 445.558394 192.488324 
" style="fill: none; stroke: #888888; stroke-width: 1.8; stroke-linecap: round"/>
   </g>
   <g id="text_5">
    <text style="fill: #ffffff; font: 700 9px 'DejaVu Sans', 'Bitstream Vera Sans', 'Computer Modern Sans Serif', 'Lucida Grande', 'Verdana', 'Geneva', 'Lucid', 'Arial', 'Helvetica', 'Avant Garde', sans-serif" transform="translate(269.199396 212.727451)">CLIP</text>
    <text style="fill: #ffffff; font: 700 9px 'DejaVu Sans', 'Bitstream Vera Sans', 'Computer Modern Sans Serif', 'Lucida Grande', 'Verdana', 'Geneva', 'Lucid', 'Arial', 'Helvetica', 'Avant Garde', sans-serif" transform="translate(236.549787 222.805482)">(استعلام نصي)</text>
   </g>
   <g id="text_6">
    <text style="fill: #ffffff; font: 700 9px 'DejaVu Sans', 'Bitstream Vera Sans', 'Computer Modern Sans Serif', 'Lucida Grande', 'Verdana', 'Geneva', 'Lucid', 'Arial', 'Helvetica', 'Avant Garde', sans-serif" transform="translate(422.359517 212.727451)">DINOv3</text>
    <text style="fill: #ffffff; font: 700 9px 'DejaVu Sans', 'Bitstream Vera Sans', 'Computer Modern Sans Serif', 'Lucida Grande', 'Verdana', 'Geneva', 'Lucid', 'Arial', 'Helvetica', 'Avant Garde', sans-serif" transform="translate(394.362486 222.805482)">(استعلام بصري)</text>
   </g>
   <g id="text_7">
    <text style="fill: #ffffff; font: 700 9px 'DejaVu Sans', 'Bitstream Vera Sans', 'Computer Modern Sans Serif', 'Lucida Grande', 'Verdana', 'Geneva', 'Lucid', 'Arial', 'Helvetica', 'Avant Garde', sans-serif" transform="translate(629.757422 125.07684)">فهم / قراءة /</text>
    <text style="fill: #ffffff; font: 700 9px 'DejaVu Sans', 'Bitstream Vera Sans', 'Computer Modern Sans Serif', 'Lucida Grande', 'Verdana', 'Geneva', 'Lucid', 'Arial', 'Helvetica', 'Avant Garde', sans-serif" transform="translate(628.529063 138.002246)">إجابة أسئلة</text>
   </g>
   <g id="patch_17">
    <path d="M 615.053141 151.72884 
Q 592.005024 173.144864 570.431173 193.19102 
" style="fill: none; stroke: #888888; stroke-width: 1.8; stroke-linecap: round"/>
    <path d="M 576.868664 191.304564 
L 570.431173 193.19102 
L 572.784503 186.909154 
" style="fill: none; stroke: #888888; stroke-width: 1.8; stroke-linecap: round"/>
   </g>
   <g id="patch_18">
    <path d="M 666.58997 152.073607 
Q 679.548948 173.145922 691.453708 192.503995 
" style="fill: none; stroke: #888888; stroke-width: 1.8; stroke-linecap: round"/>
    <path d="M 690.866077 185.821578 
L 691.453708 192.503995 
L 685.755196 188.96465 
" style="fill: none; stroke: #888888; stroke-width: 1.8; stroke-linecap: round"/>
   </g>
   <g id="text_8">
    <text style="fill: #ffffff; font: 700 9px 'DejaVu Sans', 'Bitstream Vera Sans', 'Computer Modern Sans Serif', 'Lucida Grande', 'Verdana', 'Geneva', 'Lucid', 'Arial', 'Helvetica', 'Avant Garde', sans-serif" transform="translate(550.71767 212.727451)">Qwen 3.5</text>
    <text style="fill: #ffffff; font: 700 9px 'DejaVu Sans', 'Bitstream Vera Sans', 'Computer Modern Sans Serif', 'Lucida Grande', 'Verdana', 'Geneva', 'Lucid', 'Arial', 'Helvetica', 'Avant Garde', sans-serif" transform="translate(536.123608 222.805482)">(عربي + لغات)</text>
   </g>
   <g id="text_9">
    <text style="fill: #ffffff; font: 700 9px 'DejaVu Sans', 'Bitstream Vera Sans', 'Computer Modern Sans Serif', 'Lucida Grande', 'Verdana', 'Geneva', 'Lucid', 'Arial', 'Helvetica', 'Avant Garde', sans-serif" transform="translate(704.716108 212.727451)">Gemma 4</text>
    <text style="fill: #ffffff; font: 700 9px 'DejaVu Sans', 'Bitstream Vera Sans', 'Computer Modern Sans Serif', 'Lucida Grande', 'Verdana', 'Geneva', 'Lucid', 'Arial', 'Helvetica', 'Avant Garde', sans-serif" transform="translate(708.463061 222.805482)">(سريع)</text>
   </g>
  </g>
 </g>
 <defs>
  <clipPath id="p60bcbf990f">
   <rect x="7.2" y="7.2" width="770.4" height="338.4"/>
  </clipPath>
 </defs>
</svg>
