<?xml version="1.0" encoding="utf-8" standalone="no"?>
<!DOCTYPE svg PUBLIC "-//W3C//DTD SVG 1.1//EN"
  "http://www.w3.org/Graphics/SVG/1.1/DTD/svg11.dtd">
<svg xmlns:xlink="http://www.w3.org/1999/xlink" width="568.817344pt" height="317.174531pt" viewBox="0 0 568.817344 317.174531" xmlns="http://www.w3.org/2000/svg" version="1.1">
 <metadata>
  <rdf:RDF xmlns:dc="http://purl.org/dc/elements/1.1/" xmlns:cc="http://creativecommons.org/ns#" xmlns:rdf="http://www.w3.org/1999/02/22-rdf-syntax-ns#">
   <cc:Work>
    <dc:type rdf:resource="http://purl.org/dc/dcmitype/StillImage"/>
    <dc:date>2026-05-03T16:56:15.743778</dc:date>
    <dc:format>image/svg+xml</dc:format>
    <dc:creator>
     <cc:Agent>
      <dc:title>Matplotlib v3.9.2, https://matplotlib.org/</dc:title>
     </cc:Agent>
    </dc:creator>
   </cc:Work>
  </rdf:RDF>
 </metadata>
 <defs>
  <style type="text/css">*{stroke-linejoin: round; stroke-linecap: butt}</style>
 </defs>
 <g id="figure_1">
  <g id="patch_1">
   <path d="M 0 317.174531 
L 568.817344 317.174531 
L 568.817344 0 
L 0 0 
L 0 317.174531 
z
" style="fill: none; opacity: 0"/>
  </g>
  <g id="axes_1">
   <g id="patch_2">
    <path d="M 87.5075 275.312031 
L 552.075469 275.312031 
L 552.075469 23.837812 
L 87.5075 23.837812 
L 87.5075 275.312031 
z
" style="fill: none; opacity: 0"/>
   </g>
   <g id="matplotlib.axis_1">
    <g id="xtick_1">
     <g id="line2d_1">
      <path d="M 87.5075 275.312031 
L 87.5075 23.837812 
" clip-path="url(#pfbf97214e3)" style="fill: none; stroke-dasharray: 2.96,1.28; stroke-dashoffset: 0; stroke: #1c355e; stroke-opacity: 0.3; stroke-width: 0.8"/>
     </g>
     <g id="line2d_2">
      <defs>
       <path id="maa80a31b77" d="M 0 0 
L 0 3.5 
" style="stroke: #1c355e; stroke-width: 2"/>
      </defs>
      <g>
       <use xlink:href="#maa80a31b77" x="87.5075" y="275.312031" style="fill: #1c355e; stroke: #1c355e; stroke-width: 2"/>
      </g>
     </g>
     <g id="text_1">
      <text style="fill: #1c355e; font: 12px 'DejaVu Sans', 'Bitstream Vera Sans', 'Computer Modern Sans Serif', 'Lucida Grande', 'Verdana', 'Geneva', 'Lucid', 'Arial', 'Helvetica', 'Avant Garde', sans-serif; text-anchor: middle" x="87.5075" y="291.430156" transform="rotate(-0 87.5075 291.430156)">0.0</text>
     </g>
    </g>
    <g id="xtick_2">
     <g id="line2d_3">
      <path d="M 180.421094 275.312031 
L 180.421094 23.837812 
" clip-path="url(#pfbf97214e3)" style="fill: none; stroke-dasharray: 2.96,1.28; stroke-dashoffset: 0; stroke: #1c355e; stroke-opacity: 0.3; stroke-width: 0.8"/>
     </g>
     <g id="line2d_4">
      <g>
       <use xlink:href="#maa80a31b77" x="180.421094" y="275.312031" style="fill: #1c355e; stroke: #1c355e; stroke-width: 2"/>
      </g>
     </g>
     <g id="text_2">
      <text style="fill: #1c355e; font: 12px 'DejaVu Sans', 'Bitstream Vera Sans', 'Computer Modern Sans Serif', 'Lucida Grande', 'Verdana', 'Geneva', 'Lucid', 'Arial', 'Helvetica', 'Avant Garde', sans-serif; text-anchor: middle" x="180.421094" y="291.430156" transform="rotate(-0 180.421094 291.430156)">0.2</text>
     </g>
    </g>
    <g id="xtick_3">
     <g id="line2d_5">
      <path d="M 273.334688 275.312031 
L 273.334688 23.837812 
" clip-path="url(#pfbf97214e3)" style="fill: none; stroke-dasharray: 2.96,1.28; stroke-dashoffset: 0; stroke: #1c355e; stroke-opacity: 0.3; stroke-width: 0.8"/>
     </g>
     <g id="line2d_6">
      <g>
       <use xlink:href="#maa80a31b77" x="273.334688" y="275.312031" style="fill: #1c355e; stroke: #1c355e; stroke-width: 2"/>
      </g>
     </g>
     <g id="text_3">
      <text style="fill: #1c355e; font: 12px 'DejaVu Sans', 'Bitstream Vera Sans', 'Computer Modern Sans Serif', 'Lucida Grande', 'Verdana', 'Geneva', 'Lucid', 'Arial', 'Helvetica', 'Avant Garde', sans-serif; text-anchor: middle" x="273.334688" y="291.430156" transform="rotate(-0 273.334688 291.430156)">0.4</text>
     </g>
    </g>
    <g id="xtick_4">
     <g id="line2d_7">
      <path d="M 366.248281 275.312031 
L 366.248281 23.837812 
" clip-path="url(#pfbf97214e3)" style="fill: none; stroke-dasharray: 2.96,1.28; stroke-dashoffset: 0; stroke: #1c355e; stroke-opacity: 0.3; stroke-width: 0.8"/>
     </g>
     <g id="line2d_8">
      <g>
       <use xlink:href="#maa80a31b77" x="366.248281" y="275.312031" style="fill: #1c355e; stroke: #1c355e; stroke-width: 2"/>
      </g>
     </g>
     <g id="text_4">
      <text style="fill: #1c355e; font: 12px 'DejaVu Sans', 'Bitstream Vera Sans', 'Computer Modern Sans Serif', 'Lucida Grande', 'Verdana', 'Geneva', 'Lucid', 'Arial', 'Helvetica', 'Avant Garde', sans-serif; text-anchor: middle" x="366.248281" y="291.430156" transform="rotate(-0 366.248281 291.430156)">0.6</text>
     </g>
    </g>
    <g id="xtick_5">
     <g id="line2d_9">
      <path d="M 459.161875 275.312031 
L 459.161875 23.837812 
" clip-path="url(#pfbf97214e3)" style="fill: none; stroke-dasharray: 2.96,1.28; stroke-dashoffset: 0; stroke: #1c355e; stroke-opacity: 0.3; stroke-width: 0.8"/>
     </g>
     <g id="line2d_10">
      <g>
       <use xlink:href="#maa80a31b77" x="459.161875" y="275.312031" style="fill: #1c355e; stroke: #1c355e; stroke-width: 2"/>
      </g>
     </g>
     <g id="text_5">
      <text style="fill: #1c355e; font: 12px 'DejaVu Sans', 'Bitstream Vera Sans', 'Computer Modern Sans Serif', 'Lucida Grande', 'Verdana', 'Geneva', 'Lucid', 'Arial', 'Helvetica', 'Avant Garde', sans-serif; text-anchor: middle" x="459.161875" y="291.430156" transform="rotate(-0 459.161875 291.430156)">0.8</text>
     </g>
    </g>
    <g id="xtick_6">
     <g id="line2d_11">
      <path d="M 552.075469 275.312031 
L 552.075469 23.837812 
" clip-path="url(#pfbf97214e3)" style="fill: none; stroke-dasharray: 2.96,1.28; stroke-dashoffset: 0; stroke: #1c355e; stroke-opacity: 0.3; stroke-width: 0.8"/>
     </g>
     <g id="line2d_12">
      <g>
       <use xlink:href="#maa80a31b77" x="552.075469" y="275.312031" style="fill: #1c355e; stroke: #1c355e; stroke-width: 2"/>
      </g>
     </g>
     <g id="text_6">
      <text style="fill: #1c355e; font: 12px 'DejaVu Sans', 'Bitstream Vera Sans', 'Computer Modern Sans Serif', 'Lucida Grande', 'Verdana', 'Geneva', 'Lucid', 'Arial', 'Helvetica', 'Avant Garde', sans-serif; text-anchor: middle" x="552.075469" y="291.430156" transform="rotate(-0 552.075469 291.430156)">1.0</text>
     </g>
    </g>
    <g id="text_7">
     <text style="fill: #1c355e; font: 12px 'DejaVu Sans', 'Bitstream Vera Sans', 'Computer Modern Sans Serif', 'Lucida Grande', 'Verdana', 'Geneva', 'Lucid', 'Arial', 'Helvetica', 'Avant Garde', sans-serif; text-anchor: middle" x="319.791484" y="307.043906" transform="rotate(-0 319.791484 307.043906)">عتبة الثقة</text>
    </g>
   </g>
   <g id="matplotlib.axis_2">
    <g id="ytick_1">
     <g id="line2d_13">
      <path d="M 87.5075 270.144753 
L 552.075469 270.144753 
" clip-path="url(#pfbf97214e3)" style="fill: none; stroke-dasharray: 2.96,1.28; stroke-dashoffset: 0; stroke: #1c355e; stroke-opacity: 0.3; stroke-width: 0.8"/>
     </g>
     <g id="line2d_14">
      <defs>
       <path id="ma5d2d34b78" d="M 0 0 
L -3.5 0 
" style="stroke: #1c355e; stroke-width: 2"/>
      </defs>
      <g>
       <use xlink:href="#ma5d2d34b78" x="87.5075" y="270.144753" style="fill: #1c355e; stroke: #1c355e; stroke-width: 2"/>
      </g>
     </g>
     <g id="text_8">
      <text style="fill: #1c355e; font: 12px 'DejaVu Sans', 'Bitstream Vera Sans', 'Computer Modern Sans Serif', 'Lucida Grande', 'Verdana', 'Geneva', 'Lucid', 'Arial', 'Helvetica', 'Avant Garde', sans-serif; text-anchor: end" x="80.5075" y="274.703815" transform="rotate(-0 80.5075 274.703815)">$0</text>
     </g>
    </g>
    <g id="ytick_2">
     <g id="line2d_15">
      <path d="M 87.5075 222.694996 
L 552.075469 222.694996 
" clip-path="url(#pfbf97214e3)" style="fill: none; stroke-dasharray: 2.96,1.28; stroke-dashoffset: 0; stroke: #1c355e; stroke-opacity: 0.3; stroke-width: 0.8"/>
     </g>
     <g id="line2d_16">
      <g>
       <use xlink:href="#ma5d2d34b78" x="87.5075" y="222.694996" style="fill: #1c355e; stroke: #1c355e; stroke-width: 2"/>
      </g>
     </g>
     <g id="text_9">
      <text style="fill: #1c355e; font: 12px 'DejaVu Sans', 'Bitstream Vera Sans', 'Computer Modern Sans Serif', 'Lucida Grande', 'Verdana', 'Geneva', 'Lucid', 'Arial', 'Helvetica', 'Avant Garde', sans-serif; text-anchor: end" x="80.5075" y="227.254059" transform="rotate(-0 80.5075 227.254059)">$50,000</text>
     </g>
    </g>
    <g id="ytick_3">
     <g id="line2d_17">
      <path d="M 87.5075 175.24524 
L 552.075469 175.24524 
" clip-path="url(#pfbf97214e3)" style="fill: none; stroke-dasharray: 2.96,1.28; stroke-dashoffset: 0; stroke: #1c355e; stroke-opacity: 0.3; stroke-width: 0.8"/>
     </g>
     <g id="line2d_18">
      <g>
       <use xlink:href="#ma5d2d34b78" x="87.5075" y="175.24524" style="fill: #1c355e; stroke: #1c355e; stroke-width: 2"/>
      </g>
     </g>
     <g id="text_10">
      <text style="fill: #1c355e; font: 12px 'DejaVu Sans', 'Bitstream Vera Sans', 'Computer Modern Sans Serif', 'Lucida Grande', 'Verdana', 'Geneva', 'Lucid', 'Arial', 'Helvetica', 'Avant Garde', sans-serif; text-anchor: end" x="80.5075" y="179.804303" transform="rotate(-0 80.5075 179.804303)">$100,000</text>
     </g>
    </g>
    <g id="ytick_4">
     <g id="line2d_19">
      <path d="M 87.5075 127.795484 
L 552.075469 127.795484 
" clip-path="url(#pfbf97214e3)" style="fill: none; stroke-dasharray: 2.96,1.28; stroke-dashoffset: 0; stroke: #1c355e; stroke-opacity: 0.3; stroke-width: 0.8"/>
     </g>
     <g id="line2d_20">
      <g>
       <use xlink:href="#ma5d2d34b78" x="87.5075" y="127.795484" style="fill: #1c355e; stroke: #1c355e; stroke-width: 2"/>
      </g>
     </g>
     <g id="text_11">
      <text style="fill: #1c355e; font: 12px 'DejaVu Sans', 'Bitstream Vera Sans', 'Computer Modern Sans Serif', 'Lucida Grande', 'Verdana', 'Geneva', 'Lucid', 'Arial', 'Helvetica', 'Avant Garde', sans-serif; text-anchor: end" x="80.5075" y="132.354546" transform="rotate(-0 80.5075 132.354546)">$150,000</text>
     </g>
    </g>
    <g id="ytick_5">
     <g id="line2d_21">
      <path d="M 87.5075 80.345727 
L 552.075469 80.345727 
" clip-path="url(#pfbf97214e3)" style="fill: none; stroke-dasharray: 2.96,1.28; stroke-dashoffset: 0; stroke: #1c355e; stroke-opacity: 0.3; stroke-width: 0.8"/>
     </g>
     <g id="line2d_22">
      <g>
       <use xlink:href="#ma5d2d34b78" x="87.5075" y="80.345727" style="fill: #1c355e; stroke: #1c355e; stroke-width: 2"/>
      </g>
     </g>
     <g id="text_12">
      <text style="fill: #1c355e; font: 12px 'DejaVu Sans', 'Bitstream Vera Sans', 'Computer Modern Sans Serif', 'Lucida Grande', 'Verdana', 'Geneva', 'Lucid', 'Arial', 'Helvetica', 'Avant Garde', sans-serif; text-anchor: end" x="80.5075" y="84.90479" transform="rotate(-0 80.5075 84.90479)">$200,000</text>
     </g>
    </g>
    <g id="ytick_6">
     <g id="line2d_23">
      <path d="M 87.5075 32.895971 
L 552.075469 32.895971 
" clip-path="url(#pfbf97214e3)" style="fill: none; stroke-dasharray: 2.96,1.28; stroke-dashoffset: 0; stroke: #1c355e; stroke-opacity: 0.3; stroke-width: 0.8"/>
     </g>
     <g id="line2d_24">
      <g>
       <use xlink:href="#ma5d2d34b78" x="87.5075" y="32.895971" style="fill: #1c355e; stroke: #1c355e; stroke-width: 2"/>
      </g>
     </g>
     <g id="text_13">
      <text style="fill: #1c355e; font: 12px 'DejaVu Sans', 'Bitstream Vera Sans', 'Computer Modern Sans Serif', 'Lucida Grande', 'Verdana', 'Geneva', 'Lucid', 'Arial', 'Helvetica', 'Avant Garde', sans-serif; text-anchor: end" x="80.5075" y="37.455033" transform="rotate(-0 80.5075 37.455033)">$250,000</text>
     </g>
    </g>
    <g id="text_14">
     <text style="fill: #1c355e; font: 12px 'DejaVu Sans', 'Bitstream Vera Sans', 'Computer Modern Sans Serif', 'Lucida Grande', 'Verdana', 'Geneva', 'Lucid', 'Arial', 'Helvetica', 'Avant Garde', sans-serif; text-anchor: middle" x="16.318125" y="149.574922" transform="rotate(-90 16.318125 149.574922)">إجمالي التكلفة ($)</text>
    </g>
   </g>
   <g id="line2d_25">
    <path d="M 92.15318 44.75841 
L 94.441002 44.948209 
L 96.728824 45.304082 
L 99.016646 45.77858 
L 101.304468 46.110728 
L 103.59229 47.083448 
L 105.880113 48.957714 
L 108.167935 51.353926 
L 110.455757 54.675409 
L 112.743579 58.518839 
L 115.031401 63.856937 
L 117.319223 70.072855 
L 119.607046 77.854615 
L 121.894868 87.486916 
L 124.18269 98.471534 
L 126.470512 110.571222 
L 131.046156 137.688758 
L 140.197445 195.292762 
L 142.485267 208.080471 
L 144.773089 219.705662 
L 149.348734 237.49932 
L 151.636556 244.545609 
L 153.924378 250.002331 
L 156.2122 254.17791 
L 158.500022 257.736641 
L 160.787844 260.204029 
L 163.075667 261.390273 
L 165.363489 261.674971 
L 167.651311 262.600242 
L 169.939133 262.766316 
L 172.226955 263.240813 
L 179.090422 263.881385 
L 181.378244 262.97984 
L 183.666066 262.529067 
L 185.953888 261.580072 
L 192.817355 261.603797 
L 195.105177 259.705806 
L 197.392999 259.705806 
L 199.680821 259.231309 
L 204.256465 257.333319 
L 206.544288 256.858821 
L 208.83211 255.909826 
L 213.407754 252.113845 
L 215.695576 250.690353 
L 217.983398 250.690353 
L 220.271221 250.215855 
L 222.559043 248.792362 
L 224.846865 248.792362 
L 227.134687 247.843367 
L 229.422509 245.945377 
L 231.710331 244.521884 
L 233.998153 242.623894 
L 238.573798 240.725904 
L 240.86162 240.251406 
L 243.149442 239.302411 
L 245.437264 236.929923 
L 247.725086 235.980928 
L 250.012909 234.082938 
L 254.588553 231.235953 
L 256.876375 230.286957 
L 261.452019 226.490977 
L 263.739842 225.067484 
L 266.027664 223.169494 
L 268.315486 219.373513 
L 270.603308 217.475523 
L 272.89113 215.103035 
L 275.178952 213.679543 
L 277.466774 211.307055 
L 279.754597 209.883562 
L 284.330241 206.087582 
L 286.618063 205.613084 
L 288.905885 202.291601 
L 291.193707 199.444616 
L 293.48153 198.495621 
L 298.057174 192.80165 
L 300.344996 188.531172 
L 302.632818 187.107679 
L 304.92064 186.633182 
L 309.496285 184.735191 
L 311.784107 184.260694 
L 314.071929 181.888206 
L 316.359751 179.041221 
L 318.647573 177.617728 
L 320.935395 175.719738 
L 323.223218 170.974762 
L 325.51104 169.076772 
L 327.798862 168.602274 
L 332.374506 163.857299 
L 334.662328 161.959308 
L 336.950151 159.58682 
L 339.237973 158.163328 
L 341.525795 154.841845 
L 346.101439 150.096869 
L 348.389261 148.673377 
L 350.677084 143.453903 
L 355.252728 137.759933 
L 357.54055 136.810937 
L 359.828372 135.387445 
L 366.691839 126.846489 
L 368.979661 124.948498 
L 371.267483 122.576011 
L 378.130949 112.611562 
L 380.418772 111.188069 
L 382.706594 109.290079 
L 384.994416 108.815581 
L 389.57006 105.019601 
L 391.857882 100.749123 
L 394.145704 99.32563 
L 396.433527 98.376635 
L 398.721349 96.478645 
L 401.009171 94.106157 
L 403.296993 91.259171 
L 405.584815 89.361181 
L 407.872637 86.988693 
L 410.16046 85.565201 
L 412.448282 85.090703 
L 417.023926 80.345727 
L 419.311748 78.447737 
L 423.887393 73.702761 
L 426.175215 72.753766 
L 428.463037 71.330274 
L 430.750859 70.855776 
L 433.038681 68.008791 
L 435.326503 66.585298 
L 437.614325 66.1108 
L 439.902148 65.161805 
L 442.18997 63.738313 
L 444.477792 62.789317 
L 446.765614 62.31482 
L 449.053436 61.365825 
L 451.341258 59.467835 
L 453.629081 58.518839 
L 455.916903 58.518839 
L 458.204725 58.044342 
L 460.492547 58.044342 
L 462.780369 56.620849 
L 465.068191 55.671854 
L 467.356014 55.671854 
L 471.931658 53.773864 
L 474.21948 53.299366 
L 476.507302 53.299366 
L 478.795124 51.875874 
L 481.082946 49.977883 
L 483.370769 49.503386 
L 487.946413 46.6564 
L 490.234235 45.707405 
L 492.522057 45.232908 
L 494.809879 44.283913 
L 497.097702 43.809415 
L 499.385524 43.809415 
L 501.673346 43.334917 
L 503.961168 43.334917 
L 508.536812 42.385922 
L 513.112457 42.385922 
L 519.975923 39.538937 
L 524.551567 39.538937 
L 526.83939 39.064439 
L 533.702856 39.064439 
L 540.566323 37.640947 
L 542.854145 36.691951 
L 545.141967 36.217454 
L 547.429789 35.268459 
L 547.429789 35.268459 
" clip-path="url(#pfbf97214e3)" style="fill: none; stroke: #1c355e; stroke-width: 3; stroke-linecap: square"/>
   </g>
   <g id="line2d_26">
    <path d="M 179.090422 275.312031 
L 179.090422 23.837812 
" clip-path="url(#pfbf97214e3)" style="fill: none; stroke-dasharray: 2,3.3; stroke-dashoffset: 0; stroke: #00c9a7; stroke-width: 2"/>
   </g>
   <g id="patch_3">
    <path d="M 87.5075 275.312031 
L 87.5075 23.837813 
" style="fill: none; stroke: #1c355e; stroke-width: 2; stroke-linejoin: miter; stroke-linecap: square"/>
   </g>
   <g id="patch_4">
    <path d="M 87.5075 275.312031 
L 552.075469 275.312031 
" style="fill: none; stroke: #1c355e; stroke-width: 2; stroke-linejoin: miter; stroke-linecap: square"/>
   </g>
   <g id="patch_5">
    <path d="M 228.276936 249.742685 
Q 204.645854 256.535457 183.163816 262.710485 
" style="fill: none; stroke: #00c9a7; stroke-width: 2; stroke-linecap: round"/>
    <path d="M 188.000357 263.609304 
L 183.163816 262.710485 
L 186.784796 259.380544 
" style="fill: none; stroke: #00c9a7; stroke-width: 2; stroke-linecap: round"/>
   </g>
   <g id="text_15">
    <text style="fill: #00c9a7; font: 700 11px 'DejaVu Sans', 'Bitstream Vera Sans', 'Computer Modern Sans Serif', 'Lucida Grande', 'Verdana', 'Geneva', 'Lucid', 'Arial', 'Helvetica', 'Avant Garde', sans-serif" transform="translate(202.31882 232.185139)">أفضل ROI عند conf=0.20</text>
    <text style="fill: #00c9a7; font: 700 11px 'DejaVu Sans', 'Bitstream Vera Sans', 'Computer Modern Sans Serif', 'Lucida Grande', 'Verdana', 'Geneva', 'Lucid', 'Arial', 'Helvetica', 'Avant Garde', sans-serif" transform="translate(202.31882 244.901482)">التكلفة: $6,600</text>
   </g>
   <g id="text_16">
    <text style="fill: #1c355e; font: 700 14px 'DejaVu Sans', 'Bitstream Vera Sans', 'Computer Modern Sans Serif', 'Lucida Grande', 'Verdana', 'Geneva', 'Lucid', 'Arial', 'Helvetica', 'Avant Garde', sans-serif; text-anchor: middle" x="319.791484" y="17.837812" transform="rotate(-0 319.791484 17.837812)">الخسارة المالية مقابل عتبة الثقة</text>
   </g>
   <g id="PathCollection_1">
    <defs>
     <path id="mfcb62c5640" d="M 0 4.472136 
C 1.186024 4.472136 2.323632 4.000923 3.162278 3.162278 
C 4.000923 2.323632 4.472136 1.186024 4.472136 0 
C 4.472136 -1.186024 4.000923 -2.323632 3.162278 -3.162278 
C 2.323632 -4.000923 1.186024 -4.472136 0 -4.472136 
C -1.186024 -4.472136 -2.323632 -4.000923 -3.162278 -3.162278 
C -4.000923 -2.323632 -4.472136 -1.186024 -4.472136 0 
C -4.472136 1.186024 -4.000923 2.323632 -3.162278 3.162278 
C -2.323632 4.000923 -1.186024 4.472136 0 4.472136 
z
" style="stroke: #00c9a7"/>
    </defs>
    <g clip-path="url(#pfbf97214e3)">
     <use xlink:href="#mfcb62c5640" x="179.090422" y="263.881385" style="fill: #00c9a7; stroke: #00c9a7"/>
    </g>
   </g>
   <g id="legend_1">
    <g id="line2d_27">
     <path d="M 342.202969 39.555938 
L 354.202969 39.555938 
L 366.202969 39.555938 
" style="fill: none; stroke: #1c355e; stroke-width: 3; stroke-linecap: square"/>
    </g>
    <g id="text_17">
     <text style="fill: #1c355e; font: 12px 'DejaVu Sans', 'Bitstream Vera Sans', 'Computer Modern Sans Serif', 'Lucida Grande', 'Verdana', 'Geneva', 'Lucid', 'Arial', 'Helvetica', 'Avant Garde', sans-serif; text-anchor: start" x="375.802969" y="43.755938" transform="rotate(-0 375.802969 43.755938)">إجمالي الخسارة المالية ($)</text>
    </g>
   </g>
  </g>
 </g>
 <defs>
  <clipPath id="pfbf97214e3">
   <rect x="87.5075" y="23.837812" width="464.567969" height="251.474219"/>
  </clipPath>
 </defs>
</svg>
